<svg width="18" height="18" viewBox="0 0 18 18" fill="none" xmlns="http://www.w3.org/2000/svg">
<path d="M16.5 9.65833C16.3689 11.0768 15.8365 12.4287 14.9652 13.5557C14.0938 14.6826 12.9196 15.5382 11.5797 16.0221C10.2399 16.5061 8.78997 16.5984 7.39956 16.2884C6.00916 15.9784 4.73581 15.2788 3.7285 14.2715C2.72119 13.2642 2.0216 11.9908 1.71157 10.6004C1.40154 9.21001 1.49391 7.76007 1.97786 6.42025C2.46182 5.08042 3.31734 3.90614 4.44432 3.03479C5.57131 2.16345 6.92314 1.63109 8.34165 1.5C7.51116 2.62356 7.11152 4.00787 7.21542 5.40118C7.31932 6.79448 7.91986 8.10421 8.90781 9.09216C9.89576 10.0801 11.2055 10.6807 12.5988 10.7846C13.9921 10.8885 15.3764 10.4888 16.5 9.65833V9.65833Z" stroke="#004168" stroke-width="2" stroke-linecap="round" stroke-linejoin="round"/>
</svg>
